<?xml version="1.0" encoding="utf-8"?>
<!-- Generator: Adobe Illustrator 21.1.0, SVG Export Plug-In . SVG Version: 6.00 Build 0)  -->
<svg version="1.1" id="レイヤー_1" xmlns="http://www.w3.org/2000/svg" xmlns:xlink="http://www.w3.org/1999/xlink" x="0px"
	 y="0px" viewBox="0 0 306.1099854 103.2799988" enable-background="new 0 0 306.1099854 103.2799988" xml:space="preserve">
<path fill="#F5D42B" d="M49.5438995,11.6915894h-2.3884888v0.0319214c-3.055481,0.2290649-5.4649658,2.7750244-5.4649658,5.8891602
	s2.4094849,5.6600952,5.4649658,5.8891602v0.0479736c0.263916-0.0005493,0.4489746-0.0012817,0.5927734-0.0020142
	c9.7943726-0.0524292,17.7540894,7.883667,17.7541504,17.6782227l0.000061,12.8066406h11.8212891V39.4714355
	C77.3236847,24.1290283,64.8862457,11.6915894,49.5438995,11.6915894z"/>
<path fill="#EA5A4C" d="M278.2060547,28.50354h-22.0855713l2.6068115-9.6966553
	c0.8474731-3.15448-1.0206909-6.3966675-4.1728363-7.2442017c-3.15448-0.8474731-6.3967285,1.0230103-7.2442017,4.1728516
	L243.8777618,28.50354h-9.7142334c-3.2653198,0-5.9117432,2.6464233-5.9117432,5.9117432s2.6464233,5.9117432,5.9117432,5.9117432
	h6.5357056l-12.5397949,46.6450806c-0.8475342,3.15448,1.0206909,6.3966675,4.1728516,7.2442017
	c0.5149536,0.1385498,1.0322266,0.2055054,1.5402832,0.2055054c2.6071777,0,4.9949341-1.7412109,5.7039185-4.3783569
	l13.3654785-49.7164307h25.2640839c3.2652588,0,5.9117432-2.6464233,5.9117432-5.9117432S281.4713135,28.50354,278.2060547,28.50354
	z"/>
<path fill="#EA5A4C" d="M34.6213455,26.6553268c0-8.6366901-5.8988667-14.9679127-5.8988667-14.9679127l-15.2711926-0.0000076
	c-3.201272-0.0000019-6.0703197,2.3975296-6.237339,5.5944424c-0.178122,3.4094372,2.532958,6.2290554,5.9034262,6.2290554
	h9.6804838v29.6249256h11.8234882V26.6553268z"/>
<path fill="#EA5A4C" d="M102.2855988,56.5463219V36.2016983c0-3.1371078,2.5431213-5.6802349,5.6802292-5.6802349h0.0000153
	c3.1371002,0,5.6802292,2.5431271,5.6802292,5.6802349v20.0832939
	C113.6460724,56.2849922,102.2855988,58.0074272,102.2855988,56.5463219z"/>
<circle fill="#EA5A4C" cx="118.8740387" cy="17.8121471" r="8.6246901"/>
<path fill="#EA5A4C" d="M192.2270966,94.6158066c-3.2653198,0-5.9117432-2.646431-5.9117432-5.9117432
	s2.6464233-5.9117432,5.9117432-5.9117432c2.2030487,0,3.4477539-0.1778183,3.4477539-3.8426361V60.4593124
	c0-4.3114166-3.5077972-7.8168945-7.8169098-7.8168945h-24.8939819c-3.2653198,0-5.9117432-2.646431-5.9117432-5.911747
	s2.6464233-5.911747,5.9117432-5.911747h24.8939819c10.8305054,0,19.6403961,8.8098869,19.6403961,19.6403885v18.4903717
	C207.4983368,88.4662094,201.5034485,94.6158066,192.2270966,94.6158066z"/>
<path fill="none" d="M129.5545044,61.2225304c-4.929718-4.9295807-12.907402-4.9411278-17.8594971-0.0476303l17.9069824,17.9069862
	C134.4957886,74.1299362,134.4842377,66.1523972,129.5545044,61.2225304z"/>
<path fill="#52BADF" d="M137.7346954,53.0423584c-9.4476929-9.4476929-24.7525635-9.4624023-34.2224731-0.0502319
	l0.0807495,0.0807495c-1.9675293,2.2554321-1.9008179,5.6690674,0.2472534,7.8171387s5.5616455,2.2148438,7.8171997,0.2472534
	l0.0375977,0.0375977c4.9520874-4.8934937,12.9297485-4.881958,17.8594971,0.0476685
	c4.9296875,4.9298706,4.9412842,12.9074097,0.0474854,17.859314l8.1829224,8.1829224
	C147.1970978,77.795166,147.1822052,62.4899902,137.7346954,53.0423584z"/>
<path fill="#F5D42B" d="M137.7320099,79.1532593c-2.2368774-2.2368774-5.8482056-2.2489624-8.1082153-0.0496216
	l-0.0217896-0.0217896c-0.0178833,0.0181885-0.02948,0.0401611-0.0474854,0.0581665
	c-4.9477539,4.9478149-12.9697876,4.947937-17.9176636,0c-4.9477539-4.9477539-4.9476318-12.9697266,0-17.9174805
	c0.0181885-0.0181885,0.039978-0.0296021,0.0581665-0.0476685l-0.0375977-0.0375977
	c-2.2555542,1.9675903-5.6691284,1.9008179-7.8171997-0.2472534s-2.2147827-5.5617065-0.2472534-7.8171387l-0.0807495-0.0807495
	c-0.0178833,0.0177612-0.0376587,0.0322876-0.055542,0.0502319c-9.4654541,9.4655762-9.4654541,24.812439,0,34.277832
	c9.4655762,9.4655762,24.812439,9.4655762,34.2780151,0c0.0178833-0.0178833,0.0324707-0.0374756,0.0502319-0.0554199
	l-0.0032349-0.0032349C139.9810333,85.0014648,139.9688873,81.3901978,137.7320099,79.1532593z"/>
<path fill="#F5D42B" d="M182.0998688,36.381897c0-3.2366333-2.6238403-5.8604736-5.8604126-5.8604736h-0.000061
	c-3.2365723,0-5.8604126,2.6238403-5.8604126,5.8604736v35.6734619c-0.1869507,6.1401367-1.5280151,10.8652344-7.9109497,10.8652344
	v0.0938721c-1.479248-0.0075073-2.9606934,0.550293-4.0892944,1.678894c-2.2421875,2.2422485-2.2421875,5.8776245,0,8.119812
	c1.1392822,1.1392822,2.6378784,1.6933594,4.1309204,1.6749268c12.9953003-0.0222168,19.1289062-10.2865601,19.4515991-23.1575928
	l0.1386108-0.0693359V36.381897z"/>
<path fill="#EA5A4C" d="M214.6871033,56.5866585c-2.6695099,0-5.0896454-1.8197098-5.7431641-4.5284882
	c-2.096817-8.7082787-9.2394104-12.1883583-10.8951569-12.5832443c-3.1775665-0.7551308-5.1381378-3.9442406-4.3807068-7.1194954
	c0.7551422-3.1752548,3.9442444-5.1450653,7.1195068-4.3806953c6.1911621,1.4733181,16.5321045,8.3688126,19.6519318,21.3123016
	c0.7643738,3.1752548-1.18927,6.3689842-4.3622284,7.1333542C215.6108246,56.5312347,215.1443481,56.5866585,214.6871033,56.5866585
	z"/>
<circle fill="#52BADF" cx="176.2179718" cy="17.8121471" r="8.6246901"/>
<path fill="none" d="M282.4717102,61.2225342c4.9296265,4.9296417,4.9411621,12.9075012,0.0476379,17.8593826
	l-17.9069214-17.9069405C269.5643005,56.2814674,277.5420532,56.2929001,282.4717102,61.2225342z"/>
<path fill="#52BADF" d="M290.6517944,53.0423584c-9.4476318-9.4476318-24.7523804-9.4624634-34.22229-0.050293l0.0032959,0.0032959
	c2.2600098-2.1992798,5.8712158-2.1871948,8.1081543,0.0496826c2.2368774,2.2368774,2.2489624,5.8481445,0.0496826,8.1081543
	l0.0217896,0.0217896c4.9518433-4.8935547,12.9296265-4.8820801,17.8592529,0.0475464s4.9411621,12.9074707,0.0476685,17.859375
	l0.0376587,0.0376587c-1.9675903,2.2554321-1.9008179,5.6691895,0.2471924,7.8172607
	c2.1480713,2.1480713,5.5618286,2.2148438,7.8172607,0.2471924l0.0806885,0.0806885
	C300.1143188,77.7947388,300.0994873,62.4900513,290.6517944,53.0423584z"/>
<path fill="#F5D42B" d="M282.8041992,86.9368286c-2.1480103-2.1480713-2.2147827-5.5618286-0.2471924-7.8172607
	l-0.0376587-0.0376587c-0.0180664,0.0182495-0.02948,0.0401001-0.0476685,0.0582886
	c-4.9476929,4.9476929-12.9697266,4.9476929-17.9175415-0.0001221s-4.9476929-12.9697266,0-17.9174805
	c0.0181885-0.0181274,0.039978-0.029541,0.0582886-0.0476074l-0.0217896-0.0217896
	c2.1992798-2.2600098,2.1871948-5.8712769-0.0496826-8.1081543c-2.2369385-2.2368774-5.8481445-2.2489624-8.1081543-0.0496826
	l-0.0032959-0.0032959c-0.0179443,0.0177612-0.0377808,0.0324707-0.055603,0.050293
	c-9.4655609,9.4655762-9.4655609,24.812439,0,34.2779541c9.4655151,9.4655151,24.8123779,9.4655151,34.2778931,0
	c0.0178833-0.0178833,0.0325928-0.0376587,0.050354-0.055603L290.62146,87.184021
	C288.3660278,89.1516724,284.9522705,89.0848999,282.8041992,86.9368286z"/>
<path fill="#52BADF" d="M83.3516998,45.9447632H71.48909c-0.0001221,0-0.0003052,0.0001221-0.0004272,0.0001221
	c-0.0251465-0.0003052-0.0494995-0.0037842-0.074707-0.0037842c-3.2649536,0-5.9117432,2.6467896-5.9117432,5.9117432
	c0,0.0114136,0.0016479,0.0223999,0.001709,0.0337524H65.503067v12.8120117c0,9.7756348-7.9326782,17.6966553-17.708313,17.684082
	c-4.2030029-0.0054321-7.836731-0.010498-9.09021-0.0132446c-2.2578125-0.0050049-4.0831909-1.8366699-4.0831909-4.0944824
	V17.2724609h-0.0171509c-0.1772461-3.1057739-2.7445068-5.5715332-5.8945923-5.5715332s-5.7173462,2.4657593-5.8945923,5.5715332
	h-0.0171509v68.477478c0,4.6821289,3.7955933,8.4777222,8.4777222,8.4777222h18.2689819
	c15.3423462,0,27.7797852-12.437439,27.7797852-27.7797852v-9.1426392h6.0273438
	c3.137085,0,5.6802368-2.5431519,5.6802368-5.6802368S86.4887848,45.9447632,83.3516998,45.9447632z"/>
</svg>
